<?xml version="1.0" standalone="no"?>
<!DOCTYPE svg PUBLIC "-//W3C//DTD SVG 20010904//EN"
 "http://www.w3.org/TR/2001/REC-SVG-20010904/DTD/svg10.dtd">
<svg version="1.0" xmlns="http://www.w3.org/2000/svg"
 width="300.000000pt" height="300.000000pt" viewBox="0 0 300.000000 300.000000"
 preserveAspectRatio="xMidYMid meet">
<metadata>
Created by potrace 1.10, written by Peter Selinger 2001-2011
</metadata>
<g transform="translate(0.000000,300.000000) scale(0.100000,-0.100000)"
fill="#000000" stroke="none">
<path d="M1245 2987 c-11 -9 -15 -19 -10 -27 5 -9 4 -11 -3 -6 -9 5 -12 -6
-12 -38 0 -34 -4 -46 -15 -46 -8 0 -15 7 -15 15 0 8 -4 15 -10 15 -5 0 -10 -4
-10 -10 0 -5 -7 -10 -16 -10 -13 0 -14 -3 -4 -15 7 -9 22 -12 40 -9 15 4 31 1
34 -5 4 -6 19 -11 33 -11 15 0 23 3 20 7 -11 10 13 33 34 33 11 0 19 5 19 10
0 6 5 10 11 10 6 0 -5 -18 -25 -40 -39 -44 -44 -55 -20 -46 9 3 21 3 27 -1 6
-4 20 -8 31 -9 12 -1 36 -6 54 -12 18 -6 30 -7 27 -2 -7 11 21 21 40 14 8 -3
24 1 37 10 28 20 38 20 38 1 0 -8 -9 -15 -20 -15 -26 0 -26 -16 1 -23 14 -4
18 -10 13 -18 -5 -9 -2 -10 9 -6 11 4 17 1 17 -8 0 -21 -17 -27 -40 -15 -13 7
-20 7 -20 0 0 -5 5 -10 10 -10 6 0 10 -7 10 -17 0 -9 3 -13 7 -10 3 4 14 0 24
-9 11 -10 19 -12 24 -4 3 6 1 9 -6 8 -7 -2 -15 5 -17 16 -2 11 0 16 7 12 6 -4
11 -2 11 4 0 7 7 10 14 7 16 -6 12 16 -7 41 -14 18 0 27 18 12 8 -7 15 -9 15
-6 0 4 10 2 23 -4 22 -11 22 -11 -2 9 -13 12 -31 21 -40 21 -14 0 -17 11 -18
61 -2 65 -9 82 -22 60 -7 -11 -10 -11 -14 0 -3 8 -3 -7 0 -33 5 -40 3 -48 -10
-48 -9 0 -36 -7 -60 -15 -38 -13 -54 -13 -108 -2 l-63 13 45 32 c24 18 54 35
67 39 12 3 22 9 22 14 0 13 -27 11 -59 -6 -16 -8 -31 -12 -34 -9 -3 3 -23 -4
-46 -15 -22 -12 -42 -21 -45 -21 -12 0 -25 40 -19 57 6 16 8 15 13 -7 5 -19 8
-12 11 28 2 28 4 52 3 52 0 0 -8 -6 -19 -13z"/>
<path d="M990 2965 c-5 -14 -13 -38 -17 -53 -5 -23 -4 -25 9 -15 11 10 17 10
26 1 9 -9 12 -8 12 4 0 9 -6 18 -12 21 -7 2 3 9 22 15 19 6 28 11 20 11 -25 2
10 21 38 21 13 0 20 4 17 10 -11 19 -53 10 -87 -17 l-33 -28 18 28 c9 15 13
27 7 27 -6 0 -15 -11 -20 -25z"/>
<path d="M931 2938 c-11 -18 -21 -29 -21 -24 0 6 -15 -3 -32 -20 l-33 -29 25
29 25 28 -25 -7 c-14 -4 -33 -16 -43 -27 -14 -14 -27 -17 -47 -13 -15 3 -31 2
-34 -4 -4 -6 -19 -8 -35 -5 -36 7 -83 -31 -98 -80 -16 -53 3 -66 25 -16 14 30
36 33 25 4 -5 -14 -3 -15 16 -5 18 10 21 18 15 47 -5 28 -3 33 8 29 9 -4 13
-15 11 -29 -3 -13 0 -27 6 -30 7 -5 11 5 11 26 0 22 3 29 9 19 6 -9 11 -10 15
-2 4 6 12 9 17 5 5 -3 6 -11 2 -17 -19 -30 -19 -187 -1 -187 4 0 8 1 8 3 9 46
10 110 2 102 -6 -5 -13 -19 -16 -30 -8 -30 2 23 16 83 6 28 16 52 21 52 4 0 6
4 3 8 -2 4 3 8 12 8 15 0 17 -9 14 -68 -4 -56 -2 -68 11 -68 25 0 32 22 12 36
-36 27 2 115 59 137 22 9 20 -4 -6 -33 -25 -28 -33 -50 -19 -50 11 0 44 45 56
75 14 38 23 85 15 85 -4 0 -17 -15 -29 -32z"/>
<path d="M1133 2940 c1 -14 8 -20 26 -20 23 0 24 1 6 20 -10 11 -22 20 -26 20
-4 0 -7 -9 -6 -20z"/>
<path d="M1077 2915 c-7 -15 7 -28 36 -32 18 -3 21 5 11 31 -8 20 -40 21 -47
1z"/>
<path d="M906 2768 c3 -5 1 -14 -4 -21 -5 -7 -12 -30 -15 -52 l-6 -40 16 30
c24 45 33 92 17 92 -7 0 -11 -4 -8 -9z"/>
<path d="M985 2750 c-3 -11 -1 -30 6 -42 8 -16 14 -19 17 -10 2 8 -1 19 -7 25
-7 7 -6 14 6 22 14 11 14 12 0 18 -10 4 -18 -1 -22 -13z"/>
<path d="M578 2748 c-5 -11 -18 -18 -36 -18 -22 0 -32 -7 -44 -34 -15 -31 -58
-57 -58 -34 0 5 -5 6 -10 3 -6 -4 -9 -14 -8 -23 2 -12 -5 -18 -24 -20 -18 -2
-28 -11 -32 -28 -4 -15 -12 -24 -19 -21 -17 6 -52 -19 -38 -28 6 -3 16 -3 21
0 6 3 10 -1 10 -10 0 -8 4 -23 9 -33 5 -9 12 -25 15 -35 4 -12 10 -15 18 -10
7 4 21 6 31 5 9 -2 17 2 17 8 0 6 -4 8 -10 5 -5 -3 -10 -2 -10 3 0 6 -9 8 -21
5 -14 -4 -20 -1 -18 8 2 8 -2 24 -9 37 -8 14 -9 22 -2 22 5 0 10 -7 10 -16 0
-8 5 -12 10 -9 8 5 7 11 0 20 -15 18 -5 35 20 35 10 0 22 5 26 11 5 8 -1 10
-20 7 -14 -3 -26 -1 -26 3 0 5 12 9 26 9 33 0 90 -44 98 -75 4 -14 14 -25 24
-25 16 -1 16 -1 0 -11 -9 -5 -15 -16 -12 -23 3 -8 -5 -23 -17 -35 -13 -12 -17
-21 -11 -21 7 0 12 -7 12 -15 0 -8 -4 -15 -10 -15 -5 0 -10 -5 -10 -11 0 -23
44 -3 51 24 4 16 3 25 -2 21 -17 -10 -9 11 27 68 l35 58 -20 22 c-12 12 -21
27 -21 32 1 16 50 -47 51 -64 0 -10 3 -8 8 5 10 23 57 52 68 42 3 -4 -3 -17
-15 -30 -26 -27 -92 -169 -91 -194 0 -14 2 -15 6 -3 9 22 32 42 41 36 5 -3 8
9 7 27 -3 46 27 109 69 143 38 32 37 32 -27 34 -10 1 -22 12 -27 24 -5 13 -16
26 -25 30 -13 5 -15 2 -9 -16 6 -21 5 -22 -11 -8 -17 14 -17 13 -7 -7 7 -12
22 -23 34 -25 19 -3 20 -4 6 -16 -14 -11 -20 -9 -43 12 -15 14 -31 24 -35 21
-4 -2 -12 7 -18 20 -7 14 -16 25 -22 25 -5 0 -10 5 -10 10 0 16 40 12 46 -5 4
-8 14 -15 23 -15 14 1 14 2 -1 11 -20 11 -24 39 -7 39 7 0 18 -8 26 -17 13
-16 13 -16 4 4 -16 33 -13 52 4 29 13 -17 15 -18 15 -3 0 9 -4 17 -9 17 -5 0
-11 8 -13 18 -3 16 -4 16 -10 0z m-63 -118 c3 -8 5 -19 6 -25 0 -5 9 -24 20
-41 25 -42 25 -58 -1 -44 -11 6 -27 27 -35 46 -8 20 -19 33 -24 30 -13 -9 -23
11 -17 32 7 22 44 23 51 2z"/>
<path d="M653 2719 c9 -5 17 -15 17 -22 1 -13 50 -53 50 -39 0 4 -5 13 -12 20
-7 7 -8 12 -4 12 5 0 3 7 -4 15 -7 8 -16 13 -20 10 -5 -3 -11 -1 -15 5 -3 5
-12 10 -18 10 -7 0 -4 -5 6 -11z"/>
<path d="M852 2715 c-20 -9 -21 -14 -16 -59 5 -36 4 -47 -5 -42 -6 4 -11 26
-11 49 0 26 -3 38 -10 31 -5 -5 -6 -24 -1 -46 6 -25 5 -39 -3 -42 -7 -3 -6 -8
4 -15 12 -9 10 -11 -13 -11 -42 0 -90 -24 -121 -60 -22 -27 -27 -41 -25 -79 3
-45 17 -91 28 -91 3 0 7 21 8 47 1 26 5 64 9 83 5 30 8 32 14 15 6 -13 9 -15
9 -5 1 26 51 72 65 61 7 -6 17 -6 26 -1 8 6 11 10 5 10 -5 0 -2 5 8 11 9 6 15
14 12 19 -3 4 12 6 34 3 21 -3 41 -1 45 5 3 5 0 10 -7 9 -34 -1 -45 5 -49 28
-3 13 1 34 9 45 21 30 14 47 -15 35z"/>
<path d="M937 2666 c-9 -10 -17 -25 -17 -33 0 -14 3 -13 22 3 19 17 21 17 15
2 -4 -10 -2 -18 3 -18 11 0 12 17 1 44 -7 17 -8 17 -24 2z"/>
<path d="M1590 2663 c0 -6 -2 -18 -5 -25 -3 -8 6 -27 20 -44 34 -40 59 -94 57
-124 -1 -14 5 -53 13 -86 8 -34 17 -79 19 -100 2 -22 11 -57 21 -79 20 -46 28
-112 14 -121 -5 -3 -9 -12 -9 -21 0 -9 -6 -24 -12 -33 -7 -9 -1 -3 13 12 29
32 30 32 84 17 34 -10 37 -13 20 -20 -11 -4 -14 -8 -8 -8 16 -1 46 -59 39 -77
-3 -7 1 -29 9 -48 11 -26 12 -41 4 -67 -6 -19 -12 -50 -13 -69 -1 -26 -7 -38
-24 -45 -12 -5 -22 -16 -22 -23 0 -7 5 -10 10 -7 14 9 7 -30 -10 -50 -12 -14
-11 -30 4 -108 37 -193 74 -290 131 -350 22 -23 51 -59 65 -79 14 -21 28 -38
32 -38 12 0 19 18 8 25 -5 3 -10 15 -10 25 0 10 -6 20 -12 23 -17 6 -9 13 25
21 23 6 30 3 34 -13 3 -11 11 -22 19 -25 8 -3 14 -19 14 -36 0 -21 4 -29 12
-24 11 7 9 -15 -8 -73 -4 -14 -2 -23 4 -23 6 0 13 8 15 18 3 11 7 7 12 -15 4
-18 12 -30 17 -27 6 4 8 -3 4 -17 -3 -13 -3 -18 0 -11 8 17 33 15 40 -3 4 -8
16 -15 28 -15 12 0 37 -13 57 -29 19 -16 74 -42 121 -57 59 -19 84 -32 81 -41
-3 -7 1 -13 9 -13 17 0 75 -27 98 -45 8 -6 42 -19 74 -29 35 -11 72 -30 89
-47 16 -16 31 -29 34 -29 3 0 22 -13 42 -28 20 -15 48 -34 63 -41 14 -7 29
-22 31 -32 5 -20 33 -36 44 -26 3 4 -2 18 -11 31 -21 33 -20 35 7 29 18 -4 19
-3 7 6 -8 6 -22 8 -31 6 -29 -10 -39 17 -25 65 12 40 16 45 40 42 14 -2 26 1
26 7 0 6 -11 11 -26 11 -24 0 -25 2 -22 48 3 40 6 47 26 50 48 7 18 21 -58 28
-88 7 -89 8 -74 83 l6 31 77 -6 c51 -4 71 -2 62 4 -10 7 -12 22 -7 58 4 27 9
103 11 169 3 116 3 117 -5 35 -5 -47 -14 -122 -21 -167 l-12 -83 -36 0 c-66 0
-67 2 -47 152 29 213 56 422 56 431 0 5 -5 5 -11 2 -10 -7 -5 60 8 108 2 10
-1 17 -10 17 -10 0 -16 -16 -20 -52 -3 -29 -8 -64 -11 -78 -3 -14 -10 -45 -15
-70 -5 -25 -9 -63 -9 -85 1 -22 -6 -78 -15 -125 -8 -47 -18 -112 -22 -145 -12
-101 -15 -110 -38 -110 -7 0 -14 -4 -17 -10 -3 -6 12 -11 33 -13 53 -5 51 -32
-3 -32 -29 0 -40 -4 -40 -15 0 -8 6 -14 13 -13 9 2 12 -16 10 -70 -2 -91 12
-86 21 8 4 38 10 72 14 74 6 4 4 -35 -7 -156 -1 -5 -9 -8 -20 -8 -10 0 -21 -9
-24 -20 -6 -24 12 -38 25 -19 7 11 8 10 6 -5 -2 -10 2 -21 8 -23 8 -2 14 20
19 62 l7 67 51 -7 c29 -4 53 -8 54 -9 3 -3 -19 -190 -23 -195 -2 -2 -27 12
-56 31 -29 19 -83 47 -121 62 -37 16 -70 33 -73 38 -3 5 -36 24 -72 42 -37 19
-85 42 -107 53 -22 11 -97 49 -168 84 -141 70 -139 69 -168 199 -6 30 -16 60
-21 67 -5 7 -8 16 -5 20 3 4 -34 8 -81 8 l-87 0 -42 86 c-31 64 -49 120 -68
217 l-26 131 20 20 c22 22 22 22 51 164 22 108 19 153 -12 208 -21 37 -45 55
-83 61 -16 3 -22 16 -31 63 -6 33 -18 83 -27 110 -14 43 -33 133 -42 200 -2
11 -7 28 -11 39 -6 16 -5 17 16 6 20 -11 19 -7 -10 33 -18 25 -40 49 -48 52
-14 5 -14 7 -2 15 13 8 12 10 -2 10 -10 0 -18 6 -18 13 -1 15 -30 55 -30 40z
m1310 -1288 c0 -33 -4 -55 -11 -55 -7 0 -9 15 -5 43 3 23 5 48 5 55 1 6 3 12
6 12 3 0 5 -25 5 -55z"/>
<path d="M405 2560 c-3 -4 2 -11 11 -14 10 -4 13 -13 9 -25 -3 -10 1 -24 10
-31 18 -15 20 0 3 19 -19 20 11 4 38 -21 18 -16 22 -17 27 -4 4 9 -1 17 -12
21 -10 3 -24 16 -31 29 -13 25 -46 40 -55 26z"/>
<path d="M855 2542 c2 -9 4 -28 4 -41 1 -33 13 -19 16 18 2 17 -3 32 -10 35
-8 3 -12 -2 -10 -12z"/>
<path d="M951 2534 c-8 -19 -17 -25 -31 -21 -17 4 -20 0 -19 -31 1 -24 3 -29
6 -14 6 31 18 27 31 -10 10 -27 11 -28 7 -5 -3 16 -1 27 5 27 6 0 10 8 9 18
-1 9 1 25 6 35 12 29 -1 30 -14 1z"/>
<path d="M762 2518 c1 -7 -5 -24 -14 -38 -14 -21 -16 -41 -9 -83 0 -5 5 -6 11
-2 5 3 7 12 4 20 -6 14 17 63 45 98 13 15 12 17 -13 17 -16 0 -26 -5 -24 -12z"/>
<path d="M581 2484 c-12 -20 -20 -39 -17 -41 5 -5 46 57 46 70 0 15 -8 6 -29
-29z"/>
<path d="M820 2480 c0 -5 0 -12 0 -15 0 -3 -9 -14 -21 -26 -12 -12 -19 -29
-16 -39 3 -11 1 -20 -3 -22 -4 -2 -10 -23 -14 -48 l-6 -45 30 52 c28 48 44
100 20 63 -7 -10 -10 -11 -10 -2 0 7 11 17 25 22 25 9 35 40 14 40 -6 0 -9 7
-5 15 3 8 1 15 -4 15 -6 0 -10 -4 -10 -10z"/>
<path d="M996 2481 c-3 -4 -1 -22 3 -39 5 -17 7 -33 3 -36 -3 -3 0 -6 6 -6 15
0 16 46 2 55 -8 5 -7 11 1 21 7 9 8 14 1 14 -6 0 -13 -4 -16 -9z"/>
<path d="M265 2416 c-10 -15 -14 -33 -10 -49 4 -14 3 -32 -1 -38 -12 -20 -11
-59 2 -59 7 0 10 8 7 20 -4 16 1 21 26 26 34 7 33 23 -2 25 -12 1 -4 5 18 9
22 4 45 5 52 3 7 -3 13 2 13 11 0 9 -4 16 -9 16 -5 0 -12 10 -14 23 l-4 22 -2
-22 c-1 -25 -45 -43 -62 -26 -14 14 0 43 21 43 11 0 22 5 25 10 14 23 -45 9
-60 -14z"/>
<path d="M390 2436 c0 -4 10 -11 23 -17 18 -8 16 -9 -13 -4 -40 6 -30 -10 13
-20 23 -6 27 -4 27 14 0 12 -4 21 -9 21 -5 0 -16 3 -25 6 -9 3 -16 3 -16 0z"/>
<path d="M846 2398 c-13 -43 -12 -59 5 -79 10 -12 19 -26 19 -31 0 -5 5 -6 10
-3 6 3 10 11 10 16 0 6 -4 8 -9 5 -9 -6 -31 45 -31 72 0 11 3 12 14 3 12 -10
13 -8 9 8 -6 23 -22 28 -27 9z"/>
<path d="M712 2348 l0 -53 10 44 c6 27 6 47 0 53 -6 6 -9 -10 -10 -44z"/>
<path d="M481 2336 c-8 -14 -17 -23 -21 -21 -4 3 -13 -1 -19 -9 -9 -11 -5 -13
24 -12 38 1 49 15 37 47 -8 20 -8 20 -21 -5z"/>
<path d="M383 2314 c-7 -19 18 -38 29 -21 4 6 2 15 -4 18 -7 4 -4 9 8 12 16 4
15 5 -4 6 -12 0 -25 -6 -29 -15z"/>
<path d="M562 2293 c2 -20 8 -38 15 -40 9 -3 10 4 4 24 -4 15 -6 34 -4 41 3 6
0 12 -7 12 -7 0 -10 -14 -8 -37z"/>
<path d="M787 2316 c-4 -9 4 -21 19 -30 13 -9 24 -12 24 -6 0 5 -5 10 -11 10
-5 0 -8 4 -5 9 3 5 0 14 -8 20 -10 9 -15 8 -19 -3z"/>
<path d="M365 2291 c7 -11 1 -13 -28 -8 -21 3 -37 2 -37 -4 0 -5 5 -9 11 -9 5
0 8 -4 4 -9 -11 -18 10 -19 43 -2 31 16 32 18 16 32 -15 12 -16 12 -9 0z"/>
<path d="M201 2258 c-1 -14 7 -18 32 -18 17 0 39 -5 47 -10 11 -8 8 -9 -11 -5
-19 5 -28 2 -33 -10 -3 -9 -10 -13 -16 -10 -13 8 -13 -10 1 -58 5 -21 15 -35
20 -31 6 4 6 11 -2 20 -16 19 0 18 23 -3 10 -9 21 -13 26 -8 4 4 1 10 -6 12
-7 3 -18 17 -24 32 -10 24 -11 25 -18 6 -8 -19 -9 -19 -9 2 -1 30 16 38 38 19
20 -18 36 -21 26 -6 -3 6 -1 10 4 10 6 0 11 7 11 16 0 17 -65 48 -86 40 -7 -3
-15 0 -18 7 -2 7 -5 4 -5 -5z"/>
<path d="M750 2259 c0 -13 19 -32 48 -48 32 -17 27 -2 -10 31 -35 31 -38 33
-38 17z"/>
<path d="M347 2230 c-31 -24 -49 -76 -50 -141 -1 -30 -5 -46 -11 -42 -14 7 43
-43 71 -63 25 -18 71 -25 79 -13 3 5 -6 9 -20 9 -14 0 -37 11 -51 24 -15 14
-32 27 -38 29 -11 3 -14 101 -5 137 8 29 32 58 45 53 7 -3 13 2 13 11 0 20 -2
20 -33 -4z"/>
<path d="M839 2223 c5 -10 14 -29 19 -43 7 -17 11 -19 11 -8 1 25 -17 68 -29
68 -6 0 -7 -6 -1 -17z"/>
<path d="M390 2218 c0 -7 14 -21 31 -30 l30 -18 -23 30 c-25 31 -38 37 -38 18z"/>
<path d="M357 2179 c4 -14 0 -25 -11 -31 -26 -15 -18 -32 27 -54 41 -20 43
-20 43 -2 0 13 -6 18 -16 15 -9 -2 -25 2 -36 10 -17 13 -18 15 -3 26 12 9 14
18 8 35 -11 28 -19 29 -12 1z"/>
<path d="M855 2125 c17 -46 17 -111 1 -127 -19 -20 -21 -41 -3 -36 36 13 43
118 10 162 -15 20 -15 20 -8 1z"/>
<path d="M766 2098 c-3 -13 -1 -27 4 -32 7 -7 10 -4 10 6 0 9 6 19 13 21 9 4
9 6 -1 6 -7 1 -10 6 -7 11 3 6 2 10 -3 10 -5 0 -12 -10 -16 -22z"/>
<path d="M225 2021 c-8 -25 9 -58 32 -66 10 -3 27 -24 38 -47 25 -52 60 -79
110 -83 21 -2 42 -8 48 -14 6 -6 18 -6 33 -1 20 8 27 5 40 -16 19 -28 12 -43
-10 -25 -8 7 -28 13 -44 15 -17 1 -38 8 -49 16 -10 8 -8 3 5 -12 13 -14 44
-32 68 -39 24 -8 44 -19 44 -26 0 -16 -12 -17 -30 0 -12 10 -12 9 -1 -5 7 -10
22 -18 32 -18 25 0 25 44 2 102 -10 25 -17 71 -17 110 -1 37 -2 64 -4 59 -2
-6 -10 -7 -18 -4 -8 3 -14 1 -14 -5 0 -6 5 -12 11 -14 15 -5 -1 -38 -19 -38
-13 0 -11 -4 6 -16 24 -17 30 -36 8 -28 -10 4 -12 -2 -9 -20 6 -31 -16 -36
-24 -7 -3 11 -11 17 -18 15 -7 -3 -15 2 -18 10 -7 17 -37 22 -37 6 0 -5 5 -10
10 -10 6 0 10 -4 10 -9 0 -17 -40 1 -60 27 -12 15 -20 40 -20 63 0 29 -4 39
-16 39 -14 0 -15 -7 -10 -42 5 -34 4 -39 -5 -24 -6 10 -9 36 -6 57 3 22 1 39
-4 39 -5 0 -9 -9 -9 -20 0 -13 -7 -20 -19 -20 -23 0 -35 28 -21 45 7 9 7 15 1
19 -5 4 -12 -3 -16 -13z"/>
<path d="M1623 1908 c3 -19 0 -25 -10 -21 -10 4 -8 -7 8 -36 20 -40 37 -57 25
-26 -3 8 -2 15 3 15 4 0 13 -15 19 -32 l11 -33 -5 30 c-2 17 -16 53 -30 80
-18 35 -24 42 -21 23z"/>
<path d="M1777 1898 c38 -27 44 -65 14 -92 -20 -18 -35 -8 -26 16 3 8 0 20 -7
26 -10 8 -13 -2 -15 -49 -1 -32 2 -59 7 -59 4 0 17 16 29 35 11 19 27 35 35
35 16 0 29 43 21 70 -3 11 -12 17 -19 14 -7 -3 -19 2 -26 11 -7 8 -20 15 -29
15 -10 0 -4 -8 16 -22z"/>
<path d="M1255 1880 c-3 -5 -17 -10 -29 -10 -23 0 -54 -25 -43 -36 3 -3 25 1
49 10 23 8 37 15 29 16 -11 0 -11 3 -1 15 7 8 10 15 7 15 -3 0 -9 -4 -12 -10z"/>
<path d="M1104 1805 c-18 -13 -18 -14 4 -8 27 7 29 -8 2 -25 -40 -25 -19 -30
25 -5 53 29 66 45 33 39 -13 -2 -28 0 -34 5 -6 5 -19 3 -30 -6z"/>
<path d="M1291 1750 c-10 -22 -16 -40 -12 -40 4 0 17 18 30 40 12 22 18 40 12
40 -6 0 -19 -18 -30 -40z"/>
<path d="M1227 1758 c-18 -6 -26 -15 -23 -24 3 -8 1 -14 -4 -14 -6 0 -10 5
-10 11 0 5 -5 7 -12 3 -17 -11 22 -35 51 -32 14 2 27 10 29 18 5 13 3 13 -12
1 -9 -8 -19 -11 -22 -8 -10 9 19 34 34 29 7 -2 10 2 6 12 -3 9 -7 16 -8 15 0
0 -14 -5 -29 -11z"/>
<path d="M2796 1758 c-7 -25 -26 -143 -36 -223 -5 -44 -16 -132 -25 -195 -8
-63 -24 -185 -35 -270 -11 -85 -25 -177 -30 -203 -13 -61 -13 -127 0 -127 5 0
12 17 14 38 3 20 15 87 27 148 11 60 22 132 24 160 10 120 13 145 19 170 4 14
9 49 12 78 2 28 8 71 13 96 6 25 9 52 9 60 -1 35 15 146 23 162 5 9 9 21 8 25
-4 25 3 41 22 46 29 8 142 -12 152 -26 5 -7 7 -2 5 13 -3 24 -8 26 -88 35 -47
6 -91 14 -98 18 -7 5 -14 3 -16 -5z"/>
<path d="M1142 1703 c-22 -40 -16 -53 18 -40 30 11 22 30 -9 20 -13 -4 -13 -3
-2 5 7 5 11 16 9 23 -3 10 -8 7 -16 -8z"/>
<path d="M960 1674 c-14 -8 -20 -14 -13 -14 7 0 10 -7 7 -15 -5 -11 1 -15 24
-15 26 0 29 3 24 25 -6 32 -11 35 -42 19z"/>
<path d="M2948 1596 c-3 -22 -1 -43 4 -44 4 -2 6 -7 3 -12 -3 -4 6 -10 20 -12
21 -4 25 -1 25 18 0 15 -6 24 -15 24 -17 0 -20 16 -5 25 17 10 11 32 -9 38
-16 4 -20 -2 -23 -37z"/>
<path d="M771 1598 c-13 -16 -26 -26 -29 -23 -3 3 0 11 6 17 28 28 7 31 -45 6
-12 -6 -33 -8 -47 -6 -17 3 -26 1 -26 -7 0 -17 39 -65 53 -65 8 0 7 4 -1 12
-20 20 -13 36 17 40 18 3 28 0 24 -5 -4 -6 3 -7 18 -3 69 22 179 25 179 6 0
-5 -7 -7 -15 -4 -11 4 -15 0 -15 -16 0 -16 4 -20 15 -16 10 3 15 -1 15 -13 0
-10 6 -24 14 -30 11 -10 12 -4 5 36 -11 59 -45 92 -90 85 -16 -2 -35 0 -42 6
-8 7 -19 1 -36 -20z"/>
<path d="M804 1546 c-31 -14 -92 -82 -82 -92 3 -2 11 3 18 11 12 14 16 13 41
-11 25 -24 31 -26 57 -15 38 16 72 48 72 67 0 12 -7 10 -31 -10 -38 -32 -74
-42 -94 -26 -22 18 -20 44 3 35 55 -24 96 -8 86 33 -7 25 -25 27 -70 8z"/>
<path d="M1020 1527 c0 -17 24 -66 30 -62 11 7 -3 58 -18 63 -7 2 -12 2 -12
-1z"/>
<path d="M1770 1440 c0 -19 7 -55 15 -80 l15 -45 -4 61 c-4 71 -25 123 -26 64z"/>
<path d="M1070 1399 c0 -5 -4 -8 -9 -4 -16 9 -23 -13 -11 -32 10 -16 11 -16 6
-1 -3 12 -1 15 10 11 9 -3 14 2 14 16 0 12 -2 21 -5 21 -3 0 -5 -5 -5 -11z"/>
<path d="M1235 1380 c-4 -17 -15 -35 -26 -40 -23 -13 -25 -26 -5 -33 9 -4 13
-1 10 6 -2 7 7 24 21 37 26 24 32 45 16 54 -5 4 -12 -7 -16 -24z"/>
<path d="M0 1282 c0 -22 3 -42 8 -44 4 -1 15 -16 24 -33 9 -16 23 -31 30 -31
7 -1 18 -3 23 -4 6 -1 18 -1 28 0 9 1 33 -8 52 -20 19 -12 35 -17 35 -11 0 19
41 23 61 5 14 -13 19 -30 19 -72 0 -64 7 -65 15 -1 6 46 27 72 51 62 8 -3 14
-12 14 -19 0 -11 5 -12 19 -5 25 14 91 2 91 -16 0 -7 10 -18 23 -24 20 -9 20
-9 -5 -4 -25 5 -28 2 -43 -47 -8 -28 -15 -59 -15 -68 0 -9 -9 -32 -19 -53 -23
-44 -34 -87 -24 -87 5 0 21 42 37 93 31 98 75 157 116 157 20 0 19 -3 -11 -47
-17 -27 -37 -53 -43 -58 -16 -15 -37 -54 -47 -87 l-8 -28 30 30 c22 21 29 36
24 50 -4 11 -2 20 4 20 6 0 11 -9 11 -19 0 -11 5 -21 12 -23 25 -9 1 -210 -32
-270 -15 -26 -12 -41 5 -34 11 4 15 0 13 -11 -2 -10 3 -18 10 -18 6 0 11 -4
10 -10 -2 -5 -15 -9 -30 -7 -30 4 -42 -10 -33 -38 8 -26 25 -26 32 0 4 16 8
18 19 9 16 -13 19 -69 4 -69 -7 0 -7 -6 0 -19 13 -25 13 -58 -1 -63 -7 -2 -7
-12 -1 -28 5 -14 10 -62 11 -107 2 -75 1 -81 -17 -76 -10 2 -24 -3 -31 -11 -8
-9 -20 -16 -28 -16 -8 0 -12 -4 -9 -8 3 -5 -6 -21 -19 -36 -13 -15 -26 -33
-29 -39 -3 -8 -8 -7 -15 3 -9 12 -11 11 -11 -8 0 -16 5 -22 18 -20 9 2 16 -3
15 -9 -2 -8 7 -13 21 -13 21 0 25 5 24 32 -1 36 37 75 81 84 l26 5 -3 425 c-4
465 -3 472 52 501 43 22 165 30 177 12 13 -20 11 -27 -8 -32 -10 -3 58 -5 151
-6 93 0 167 1 165 4 -3 2 -38 5 -77 6 -57 1 -72 5 -68 15 4 11 -11 14 -69 14
-62 0 -79 4 -95 20 -16 16 -28 19 -55 14 -28 -5 -35 -3 -35 10 0 22 -10 20
-50 -9 l-33 -24 -34 29 c-26 23 -42 29 -73 28 -26 -1 -47 5 -59 16 -13 12 -33
17 -58 16 -76 -5 -93 -1 -105 25 -14 30 -34 32 -43 5 -8 -26 -36 -26 -58 0
-12 15 -24 19 -42 14 -43 -11 -72 3 -79 37 -3 17 -15 42 -26 56 l-20 26 0 -41z"/>
<path d="M1446 1255 c16 -13 17 -16 4 -26 -12 -8 -8 -10 17 -7 19 3 31 0 30
-6 -1 -6 5 -11 13 -11 8 0 21 -4 28 -8 6 -5 12 -5 12 -2 0 13 -28 34 -53 40
-14 4 -28 13 -31 21 -3 8 -13 14 -23 14 -15 0 -15 -2 3 -15z"/>
<path d="M1775 1210 c-14 -22 -25 -43 -25 -48 0 -14 -25 -62 -32 -62 -5 0 -8
-8 -8 -17 1 -15 4 -14 20 6 11 12 18 27 15 31 -3 5 -1 10 4 12 10 3 64 118 56
118 -3 0 -16 -18 -30 -40z"/>
<path d="M850 1221 c0 -13 74 -123 93 -140 9 -7 23 -11 31 -9 10 2 -7 27 -54
81 -39 43 -70 73 -70 68z"/>
<path d="M1100 1163 c0 -21 12 -43 21 -37 5 3 6 -2 3 -11 -5 -13 -9 -13 -22
-3 -13 11 -14 10 -10 -2 5 -16 30 -17 93 -2 50 11 95 32 95 44 0 5 -18 -1 -40
-12 -42 -21 -85 -26 -95 -10 -3 6 1 7 9 4 9 -3 16 -2 16 4 0 5 -9 12 -20 15
-11 3 -18 1 -14 -4 3 -5 1 -9 -5 -9 -5 0 -15 8 -20 18 -6 9 -11 12 -11 5z"/>
<path d="M1040 1152 c0 -5 -12 -14 -26 -20 -14 -7 -22 -17 -19 -22 4 -6 12 -4
21 5 14 13 34 13 34 -1 0 -3 -5 -2 -10 1 -15 9 -25 -24 -11 -38 8 -8 11 -7 11
4 0 12 2 12 10 -1 7 -11 10 -7 10 18 0 17 -4 32 -10 32 -5 0 -7 7 -4 15 4 8 3
15 0 15 -3 0 -6 -4 -6 -8z"/>
<path d="M1076 1085 c4 -8 14 -15 23 -16 12 0 12 -2 -4 -9 -11 -5 -17 -9 -13
-9 3 -1 13 -4 22 -7 26 -10 19 22 -9 40 -21 14 -24 14 -19 1z"/>
<path d="M1143 1041 c-11 -17 -8 -20 25 -26 20 -4 40 -12 44 -18 4 -7 8 -66 8
-132 0 -84 4 -115 10 -103 6 9 9 60 6 113 -2 52 0 98 5 100 22 14 -33 85 -65
85 -12 0 -27 -9 -33 -19z"/>
<path d="M1682 1038 c-6 -6 -12 -18 -12 -25 0 -7 -4 -13 -10 -13 -5 0 -9 -3
-8 -7 4 -16 -13 -51 -28 -57 -8 -3 -19 -17 -24 -31 -6 -15 -14 -24 -19 -20
-14 8 -19 -7 -11 -35 l7 -25 11 25 c5 14 17 32 26 39 22 19 89 138 84 151 -2
7 -8 6 -16 -2z"/>
<path d="M2080 1035 c0 -10 -7 -26 -15 -35 -14 -15 -14 -18 -1 -23 10 -4 16 4
21 30 3 19 4 38 1 41 -3 3 -6 -3 -6 -13z"/>
<path d="M589 1011 c-23 -18 -24 -25 -25 -153 l-1 -133 6 122 c7 151 17 165
114 174 l62 6 -66 1 c-52 2 -72 -2 -90 -17z"/>
<path d="M1277 1022 c-10 -2 -16 -9 -14 -15 5 -15 19 -18 37 -7 19 12 2 28
-23 22z"/>
<path d="M798 912 c-16 -2 -28 -7 -28 -11 0 -9 52 -22 58 -16 13 12 -7 30 -30
27z"/>
<path d="M871 886 c-7 -9 -11 -47 -10 -102 2 -50 6 -79 10 -68 4 10 5 29 2 41
-2 11 0 30 6 41 7 14 8 23 1 27 -5 3 -10 11 -10 16 0 6 5 7 11 3 8 -4 9 1 4
16 -4 13 -3 20 2 17 5 -4 10 0 10 8 0 19 -11 19 -26 1z"/>
<path d="M486 849 c-8 -12 -18 -19 -23 -16 -4 3 -8 -6 -8 -19 0 -13 6 -24 13
-24 6 0 12 6 12 14 0 7 9 25 21 40 11 14 16 26 10 26 -5 0 -17 -9 -25 -21z"/>
<path d="M1506 798 c-32 -34 -46 -41 -86 -45 -44 -4 -51 -2 -78 26 -32 34 -52
40 -52 16 0 -8 -4 -15 -10 -15 -5 0 -10 -4 -10 -8 0 -4 8 -8 19 -8 11 0 17 5
14 13 -4 9 0 11 11 7 10 -4 15 -12 12 -20 -6 -17 49 -52 77 -49 12 1 28 3 35
4 7 0 10 5 7 11 -3 6 1 7 10 4 16 -6 84 56 86 79 1 7 5 -1 9 -18 8 -30 8 -30
9 8 0 20 -2 37 -6 37 -5 -1 -25 -19 -47 -42z"/>
<path d="M771 792 c17 -27 49 -46 49 -30 0 21 -13 35 -38 43 -21 6 -22 5 -11
-13z"/>
<path d="M378 755 c-4 -27 -10 -104 -13 -170 l-5 -120 15 60 c11 40 15 96 13
170 -3 93 -4 102 -10 60z"/>
<path d="M163 728 c-11 -15 -10 -24 5 -61 7 -16 12 -34 12 -42 0 -8 7 -11 19
-8 19 5 19 34 -1 59 -5 7 -11 22 -13 34 -6 30 -10 33 -22 18z"/>
<path d="M1220 646 c0 -66 -4 -96 -12 -99 -9 -4 -8 -6 2 -6 12 -1 14 -13 12
-57 -3 -36 -8 -54 -15 -51 -7 2 -37 12 -67 22 -30 10 -61 22 -68 28 -24 19
-115 45 -195 56 -122 17 -135 15 -174 -24 -30 -30 -34 -39 -28 -67 4 -18 15
-43 24 -55 16 -21 71 -59 71 -49 0 3 21 -4 46 -14 25 -11 58 -20 74 -20 29 0
55 -21 42 -36 -4 -4 0 -3 10 4 18 14 34 0 22 -20 -5 -7 -3 -8 5 -4 14 9 71
-12 71 -26 0 -5 3 -7 8 -4 4 2 16 -17 26 -42 11 -26 23 -49 26 -52 4 -3 10
-15 14 -26 5 -18 2 -21 -19 -21 -14 0 -25 3 -25 8 0 5 -5 9 -11 9 -6 0 -25 6
-42 14 -18 7 -45 19 -62 26 -16 7 -66 14 -110 16 -177 6 -200 7 -212 17 -8 6
-18 3 -30 -9 -17 -17 -18 -13 -24 97 -3 63 -6 112 -7 109 -1 -3 -3 -57 -5
-122 l-2 -116 120 -6 c66 -3 145 -5 175 -3 45 2 74 -6 164 -42 104 -42 109
-44 122 -26 20 26 17 42 -10 78 -13 18 -32 51 -41 74 -14 36 -26 46 -71 67
-30 14 -68 34 -84 46 -15 11 -36 20 -45 20 -41 0 -131 35 -157 61 -34 33 -37
78 -8 104 17 15 31 17 100 11 107 -9 342 -86 385 -126 l22 -21 0 181 c1 99 -3
183 -8 186 -5 3 -9 -37 -9 -90z"/>
<path d="M1270 718 c0 -19 12 -34 38 -47 31 -16 30 8 -1 37 -26 25 -37 28 -37
10z"/>
<path d="M320 674 c0 -22 -5 -45 -11 -51 -7 -7 -8 -13 0 -17 6 -4 7 -15 2 -29
-4 -12 -6 -33 -4 -47 2 -14 3 -43 3 -66 -1 -27 4 -41 12 -41 10 0 13 32 13
138 0 76 -3 141 -8 145 -4 4 -7 -11 -7 -32z"/>
<path d="M1787 683 c-22 -16 -36 -32 -32 -40 2 -8 0 -11 -5 -8 -6 4 -18 -7
-28 -24 -9 -17 -20 -31 -24 -31 -5 0 -8 -6 -8 -14 0 -19 -88 -124 -109 -131
-18 -6 -67 -83 -58 -92 3 -2 22 14 42 36 34 37 65 53 65 33 0 -13 -74 -79 -96
-86 -12 -4 -27 -19 -35 -34 -7 -15 -15 -30 -17 -33 -1 -4 4 -9 12 -12 9 -4 15
-3 14 1 -1 4 13 23 32 42 112 115 190 210 173 210 -11 0 -24 -5 -30 -11 -7 -7
-9 -3 -6 15 4 17 12 26 24 26 10 0 21 5 24 10 3 6 1 10 -5 10 -8 0 -8 6 0 20
6 11 15 18 21 15 5 -4 9 0 9 8 0 8 20 35 45 60 63 64 59 78 -8 30z"/>
<path d="M265 599 c2 -56 6 -104 9 -107 4 -3 6 43 6 101 0 60 -4 107 -9 107
-6 0 -8 -42 -6 -101z"/>
<path d="M870 680 c-8 -14 -7 -25 2 -40 14 -22 18 -23 42 -14 21 8 11 24 -15
24 -16 0 -18 5 -13 25 7 30 -1 33 -16 5z"/>
<path d="M50 680 c-11 -7 -12 -12 -3 -21 6 -6 9 -18 6 -25 -3 -8 2 -25 11 -39
9 -13 16 -31 16 -38 0 -8 9 -22 20 -32 12 -10 29 -37 39 -59 10 -23 26 -48 37
-56 16 -13 15 -10 -4 23 -12 21 -20 42 -17 47 3 5 1 11 -5 15 -5 3 -10 15 -10
26 0 13 -7 19 -22 19 -23 1 -23 1 -3 17 20 15 20 15 -3 10 -18 -4 -22 -2 -18
9 3 8 9 20 12 28 3 7 -2 20 -10 29 -9 9 -16 25 -16 36 0 23 -7 26 -30 11z"/>
<path d="M1256 655 c-13 -41 6 -164 34 -217 12 -23 24 -51 26 -61 2 -10 12
-33 24 -50 36 -57 80 -151 80 -173 0 -11 16 -39 35 -61 19 -23 35 -49 36 -60
0 -14 2 -13 10 6 5 14 7 31 4 38 -2 8 -1 12 4 9 5 -3 11 6 14 21 5 26 4 26 -9
8 -10 -13 -14 -15 -14 -4 0 12 -2 12 -9 0 -26 -40 -37 40 -12 86 10 19 9 22
-4 17 -8 -4 -15 -1 -15 5 0 6 -6 11 -14 11 -18 0 -46 38 -46 62 0 10 7 18 16
18 17 0 14 22 -4 28 -7 2 -12 -3 -12 -12 0 -27 -24 -18 -38 14 -8 17 -20 30
-29 30 -12 0 -12 2 1 16 9 8 16 18 16 21 0 4 -3 3 -7 0 -3 -4 -17 11 -31 34
-13 22 -21 43 -18 46 3 3 10 -5 15 -18 5 -13 10 -18 10 -10 1 11 5 10 15 -4 8
-11 12 -23 10 -27 -3 -5 0 -8 7 -8 6 0 10 -10 7 -23 -6 -30 18 -55 25 -26 3
10 2 19 -2 19 -4 0 -12 15 -19 33 -6 17 -25 47 -42 65 -16 18 -30 37 -30 43 0
5 -4 9 -10 9 -5 0 -10 33 -12 73 -3 61 -5 67 -12 42z"/>
<path d="M1622 620 c-39 -48 -40 -58 -5 -34 22 14 80 66 64 57 -2 -2 -9 2 -16
7 -8 7 -21 -2 -43 -30z"/>
<path d="M13 563 c9 -11 17 -29 17 -40 0 -12 15 -34 33 -50 48 -43 181 -193
175 -198 -2 -3 -20 11 -38 30 -19 19 -38 35 -42 35 -5 0 -22 14 -40 30 -17 17
-40 30 -52 30 -14 0 -17 3 -8 8 9 6 7 13 -10 29 -35 31 -48 36 -48 19 0 -9 8
-16 18 -16 16 -1 15 -2 -2 -15 -28 -21 -14 -33 135 -115 71 -39 129 -75 129
-79 0 -4 8 -16 18 -27 10 -11 22 -32 26 -48 9 -38 13 -31 19 34 3 30 13 95 22
144 9 48 14 98 12 110 -1 11 -9 -14 -16 -56 -8 -43 -16 -76 -20 -74 -3 2 -7
-17 -8 -42 -1 -25 -5 -53 -8 -61 -10 -26 -37 49 -31 84 5 23 4 27 -5 15 -9
-12 -10 -11 -6 8 3 12 2 20 -3 17 -11 -7 -49 150 -51 207 0 16 -27 33 -37 24
-2 -3 2 -16 10 -28 8 -13 14 -39 13 -58 -1 -19 0 -39 3 -45 4 -5 8 -19 9 -30
2 -10 9 -22 15 -27 7 -4 10 -10 6 -13 -4 -4 0 -25 8 -47 8 -23 12 -43 10 -45
-2 -2 -21 20 -42 49 -46 63 -70 88 -84 88 -5 0 -10 5 -10 10 0 6 -20 30 -45
53 -26 25 -45 53 -45 65 0 12 -10 26 -22 33 -22 12 -22 11 -5 -8z"/>
<path d="M2450 522 c0 -25 14 -22 30 8 8 16 7 19 -10 17 -14 -1 -20 -8 -20
-25z"/>
<path d="M1686 403 c-58 -59 -106 -110 -106 -115 0 -4 -14 -23 -31 -43 -17
-19 -29 -41 -26 -48 3 -7 -1 -21 -9 -32 -8 -10 -14 -23 -14 -27 0 -14 41 12
47 30 10 28 53 82 66 83 12 0 56 53 135 164 94 131 77 128 -62 -12z"/>
<path d="M2416 476 c-30 -64 -54 -148 -65 -231 -6 -44 -18 -108 -27 -143 -19
-74 -11 -117 12 -64 16 40 32 35 26 -8 -2 -17 0 -30 6 -30 13 0 19 23 21 75 1
63 20 191 43 297 15 70 19 103 12 119 -10 21 -11 21 -28 -15z"/>
<path d="M2626 462 c-13 -20 -36 -62 -51 -92 -15 -30 -31 -57 -35 -60 -13 -9
-60 -112 -55 -120 3 -5 1 -11 -5 -15 -5 -3 -10 -16 -11 -28 -1 -20 -2 -20 -9
3 -6 18 -8 6 -9 -43 -1 -38 -6 -77 -11 -88 -9 -16 -7 -19 9 -19 15 0 23 10 32
43 12 48 11 45 63 121 21 31 37 59 34 62 -8 7 -48 -37 -48 -53 0 -13 -12 -17
-23 -7 -7 8 13 66 30 82 7 7 13 18 13 24 0 6 14 24 32 40 30 26 30 28 9 28
-13 0 -19 4 -16 10 4 6 16 10 27 8 14 -2 23 5 29 21 8 20 7 22 -6 11 -8 -7
-12 -17 -8 -23 3 -6 1 -7 -6 -3 -9 6 -9 11 -1 21 7 8 9 18 6 23 -3 6 1 15 9
22 8 7 15 19 15 26 0 10 7 13 25 8 30 -7 33 6 5 24 -18 11 -22 8 -44 -26z"/>
<path d="M842 452 c-32 -29 -31 -45 4 -56 14 -4 26 1 42 19 12 14 18 25 13 25
-6 0 -13 -4 -16 -10 -3 -5 -10 -10 -16 -10 -14 0 -5 40 12 51 8 5 9 9 3 9 -6
0 -24 -13 -42 -28z"/>
<path d="M956 456 c-3 -14 -16 -28 -28 -32 l-22 -7 23 -18 c24 -20 59 -15 41
6 -5 7 -7 26 -4 44 8 36 -1 42 -10 7z"/>
<path d="M1951 452 c-11 -16 -23 -40 -26 -55 -4 -14 -20 -40 -36 -56 -30 -32
-49 -81 -30 -81 11 0 37 40 33 53 -1 4 2 7 7 7 5 0 14 14 21 30 7 17 17 33 22
36 12 7 6 -19 -7 -28 -5 -4 -7 -10 -3 -13 4 -4 14 5 24 20 15 23 15 28 3 35
-11 7 -11 12 -1 22 9 9 12 9 12 -1 0 -7 5 -9 10 -6 13 8 13 65 1 65 -5 0 -19
-13 -30 -28z"/>
<path d="M450 458 c0 -7 -7 -25 -14 -40 -13 -25 -13 -28 0 -28 8 0 19 12 24
26 6 16 14 23 22 18 7 -4 4 2 -6 14 -22 25 -26 27 -26 10z"/>
<path d="M2056 452 c-7 -11 4 -52 14 -52 19 0 28 25 16 43 -15 19 -22 21 -30
9z"/>
<path d="M1250 369 c0 -6 21 -41 47 -77 25 -36 40 -62 33 -57 -18 11 20 -52
44 -73 18 -15 18 -13 -2 21 -12 21 -22 47 -22 58 0 10 -4 19 -10 19 -5 0 -10
6 -10 13 0 19 -58 107 -70 107 -5 0 -10 -5 -10 -11z"/>
<path d="M1760 358 c0 -9 -13 -36 -28 -60 -16 -24 -35 -59 -42 -78 -7 -19 -22
-44 -32 -56 -25 -29 -24 -48 2 -32 11 7 20 19 20 26 0 7 5 18 10 25 26 31 86
168 78 179 -6 10 -8 8 -8 -4z"/>
<path d="M2042 330 c-5 -22 -6 -42 -2 -45 8 -5 24 74 17 82 -3 2 -9 -14 -15
-37z"/>
<path d="M2752 339 c-19 -19 -38 -29 -47 -25 -8 3 -15 2 -15 -3 0 -5 -14 -24
-30 -42 -37 -41 -73 -89 -67 -89 2 0 34 28 69 63 78 74 109 101 134 115 15 9
16 11 3 12 -8 0 -30 -14 -47 -31z"/>
<path d="M2242 325 c0 -18 -3 -38 -7 -44 -9 -16 -25 -13 -25 4 0 8 -4 15 -10
15 -5 0 -10 -6 -10 -14 0 -7 -9 -16 -21 -19 -13 -4 -18 -10 -14 -17 4 -7 2
-16 -6 -20 -10 -7 -10 -13 -1 -32 12 -23 12 -23 9 -1 -1 12 2 21 6 20 5 -1 15
11 23 26 8 15 19 25 24 22 13 -8 12 -21 -2 -37 -7 -7 -25 -39 -41 -71 -24 -51
-25 -58 -10 -55 10 2 17 11 17 21 -1 9 2 17 6 17 4 0 18 23 31 50 13 28 27 50
30 50 7 0 39 73 39 88 0 4 -9 13 -19 19 -17 11 -19 9 -19 -22z"/>
<path d="M2935 327 c-101 -58 -365 -284 -365 -313 0 -5 22 14 48 41 115 120
291 258 329 258 6 0 14 6 17 14 6 15 -1 15 -29 0z"/>
<path d="M2770 286 c0 -8 -6 -17 -12 -19 -10 -4 -9 -8 2 -16 22 -16 30 -13 23
6 -5 12 -2 15 10 10 15 -6 16 -3 7 13 -12 23 -30 26 -30 6z"/>
<path d="M2929 277 c-14 -12 -36 -29 -48 -37 -11 -8 -21 -21 -21 -30 0 -10 -3
-11 -8 -3 -4 7 -14 -4 -26 -30 -10 -23 -22 -50 -27 -59 -5 -10 -6 -18 -2 -18
12 0 173 168 173 179 0 20 -16 19 -41 -2z"/>
<path d="M1806 218 c-11 -22 -22 -56 -26 -75 -7 -28 -6 -32 6 -22 8 6 11 15 8
20 -3 5 6 28 20 52 27 45 32 67 18 67 -5 0 -16 -19 -26 -42z"/>
<path d="M2710 236 c0 -8 -9 -18 -20 -21 -11 -3 -20 -14 -20 -22 0 -9 -3 -13
-7 -10 -8 9 -128 -115 -148 -153 -9 -16 -13 -30 -10 -30 17 0 45 23 45 36 0 8
5 12 10 9 6 -3 10 1 10 9 0 8 9 20 20 26 11 6 20 17 20 25 0 9 6 12 15 8 9 -3
15 -2 14 3 -4 24 2 36 16 30 9 -3 15 0 15 9 0 8 7 15 15 15 8 0 15 7 15 15 0
7 6 18 13 22 21 12 29 43 12 43 -8 0 -15 -6 -15 -14z"/>
<path d="M393 199 c3 -9 -1 -28 -8 -43 -22 -41 9 -31 33 11 15 28 15 36 1 27
-6 -3 -16 0 -21 7 -8 11 -9 11 -5 -2z"/>
<path d="M2270 195 c0 -8 -5 -15 -10 -15 -6 0 -10 -6 -8 -12 1 -7 -3 -26 -9
-43 -6 -16 -14 -47 -18 -67 -3 -21 -13 -42 -23 -47 -14 -8 -9 -10 20 -11 37 0
59 14 36 23 -10 4 -10 8 -2 14 7 4 15 37 19 73 3 36 9 73 11 83 3 9 1 17 -5
17 -6 0 -11 -7 -11 -15z"/>
<path d="M2943 193 c-7 -3 -13 -11 -13 -19 0 -8 -4 -14 -8 -14 -5 0 -17 -7
-28 -16 -10 -8 -13 -13 -6 -9 7 4 12 -1 12 -13 0 -11 7 -22 15 -26 12 -4 14 0
9 18 -4 17 0 28 16 39 23 16 25 47 3 40z"/>
<path d="M2743 143 c-23 -24 -35 -43 -27 -43 8 0 14 -4 14 -10 0 -5 -5 -10
-10 -10 -6 0 -28 -12 -50 -26 -41 -27 -53 -54 -24 -54 26 0 104 69 104 91 0
10 4 19 9 19 10 0 35 55 30 68 -2 5 -23 -11 -46 -35z"/>
<path d="M1887 133 c-9 -16 -17 -113 -9 -113 5 0 9 6 9 13 0 6 4 33 8 60 7 43
3 59 -8 40z"/>
<path d="M2081 79 l-1 -46 35 16 c19 9 34 19 35 24 0 10 -18 9 -25 -3 -6 -10
-37 -2 -31 9 2 3 0 15 -5 26 -5 15 -8 7 -8 -26z"/>
<path d="M611 93 c-1 -6 -4 -19 -8 -29 -4 -12 -3 -15 5 -10 7 4 12 2 12 -6 0
-9 3 -9 10 2 5 8 10 24 10 35 0 15 -2 17 -9 6 -7 -11 -9 -11 -14 0 -3 9 -6 9
-6 2z"/>
<path d="M2793 65 c-20 -17 -23 -24 -12 -25 14 0 59 34 59 45 0 12 -21 3 -47
-20z"/>
<path d="M920 55 c0 -14 -7 -28 -15 -31 -17 -7 -20 -24 -5 -24 6 0 15 11 22
24 12 27 41 45 31 20 -3 -7 0 -14 6 -14 13 0 27 28 18 36 -2 3 -16 7 -31 10
-22 4 -26 1 -26 -21z"/>
<path d="M1187 63 c-19 -18 -5 -32 33 -31 47 0 50 8 13 26 -31 14 -37 15 -46
5z"/>
<path d="M494 52 c-14 -9 -25 -52 -13 -52 9 0 33 50 26 56 -1 2 -7 0 -13 -4z"/>
<path d="M520 20 c0 -16 7 -20 35 -20 19 0 35 5 35 11 0 6 -9 8 -20 4 -13 -4
-22 -1 -26 9 -9 23 -24 20 -24 -4z"/>
<path d="M670 9 c-33 -6 -33 -6 12 -8 26 0 49 3 52 7 5 9 -16 10 -64 1z"/>
<path d="M1120 10 c-20 -6 -14 -8 25 -8 37 -1 45 2 30 8 -24 10 -23 10 -55 0z"/>
</g>
</svg>
